<svg width="400" height="400" viewBox="0 0 400 400" fill="none" xmlns="http://www.w3.org/2000/svg">
<path d="M211.982 86.495C213.345 85.5405 214.737 83.542 215.928 82.2705C218.443 79.5865 221.222 77.1797 224.359 75.2302C244.786 63.339 275.875 64.0688 298.61 66.7968C306.987 67.8018 319.715 70.498 327.44 73.697C329.89 74.7117 333.55 77.4445 335.125 79.625C338.027 83.6422 338.627 88.5767 337.82 93.407C335.517 107.183 326.025 119.655 317.442 130.222C316.195 131.757 312.452 136.017 311.075 137.225C324.782 150.141 315.332 164.982 300.925 171.761C301.285 176.167 301.095 181.869 301.077 186.387L301.052 209.064C301.047 234.05 303.312 254.503 292.507 278.003C289.062 285.563 284.595 292.617 279.232 298.965C263.285 317.965 240.445 329.855 215.733 332.017C190.758 334.242 165.94 326.315 146.878 310.027C139.913 304.112 128.569 291.38 125.071 282.943C115.322 288.278 103.745 289.988 92.9992 286.858C82.333 283.745 73.3587 276.49 68.0825 266.71C63.018 257.297 61.8685 246.268 64.8835 236.012C67.7762 226.071 74.3125 217.587 83.1865 212.253C83.992 211.62 84.0227 211.423 84.351 210.438C85.5797 209.994 87.9153 209.482 89.2233 209.16C90.3875 208.982 93.5415 207.806 94.6497 207.346C103.535 206.139 107.738 205.882 116.564 208.171C116.849 207.971 116.762 208.081 116.907 207.833C117.692 206.49 136.378 191.33 138.351 190.238C139.202 188.652 150.235 180.717 152.283 178.374C154.689 175.623 156.361 172.662 158.306 169.587L193.298 115.754C195.301 112.66 211.935 87.648 211.982 86.495Z" fill="#F59A92"/>
<path d="M211.982 86.495C213.345 85.5405 214.737 83.542 215.928 82.2705C218.443 79.5865 221.222 77.1797 224.359 75.2302C244.786 63.339 275.875 64.0688 298.61 66.7968C306.987 67.8018 319.715 70.498 327.44 73.697C329.89 74.7117 333.55 77.4445 335.125 79.625C338.027 83.6422 338.627 88.5767 337.82 93.407C335.517 107.183 326.025 119.655 317.442 130.222C316.195 131.757 312.452 136.017 311.075 137.225C324.782 150.141 315.332 164.982 300.925 171.761C299.015 172.454 297.055 173.001 295.062 173.399C280.217 176.228 264.59 169.551 252.552 161.335C231.308 183.586 201.309 167.553 177.828 158.637C171.935 162.447 166.562 167.033 161.024 171.312C160.48 171.733 160.339 171.652 159.661 171.663C158.723 171.2 158.358 170.628 158.306 169.587L193.298 115.754C195.301 112.66 211.935 87.648 211.982 86.495Z" fill="#FE83FD"/>
<path d="M177.829 158.637C181.421 156.665 186.305 153.075 190.237 150.779C203.043 143.261 216.763 137.423 231.059 133.41C253.898 127.187 279.29 126.494 302.06 133.583C305.14 134.541 308.27 135.623 311.075 137.225C324.783 150.141 315.333 164.982 300.925 171.761C299.015 172.454 297.055 173.001 295.063 173.399C280.218 176.228 264.59 169.552 252.553 161.335C231.309 183.586 201.31 167.553 177.829 158.637Z" fill="#3A2453"/>
<path d="M116.564 208.171C116.85 207.971 116.763 208.081 116.907 207.833C117.692 206.49 136.378 191.33 138.351 190.238C138.634 193.02 138.471 198.878 138.466 201.966L138.424 224.578C132.715 216.59 125.967 211.336 116.564 208.171Z" fill="#3A2453"/>
<path d="M159.532 204.253C160.602 204.256 163.308 204.151 164.169 204.481L164.412 204.734C165.092 204.236 205.227 204.438 209.545 204.508C210.629 204.226 215.391 204.4 216.78 204.415C216.807 215.377 216.788 223.423 208.229 231.934C202.789 237.362 195.371 240.338 187.687 240.174C180.1 240.11 172.86 236.982 167.611 231.503C159.359 222.999 159.511 214.966 159.532 204.253Z" fill="black"/>
<path d="M159.532 204.253C160.602 204.256 163.308 204.151 164.169 204.481L164.412 204.734C163.395 208.624 163.126 212.625 163.999 216.573C165.346 222.729 169.099 228.091 174.422 231.464C179.821 234.841 186.351 235.906 192.543 234.42C198.675 232.945 203.953 229.061 207.185 223.645C210.836 217.546 211.207 211.281 209.545 204.508C210.629 204.226 215.391 204.4 216.78 204.415C216.807 215.377 216.788 223.423 208.229 231.934C202.789 237.362 195.371 240.338 187.687 240.174C180.1 240.11 172.86 236.982 167.611 231.503C159.359 222.999 159.511 214.966 159.532 204.253Z" fill="#EEEEEE"/>
<path d="M230.764 204.395C232.197 204.393 234.883 203.8 235.677 204.936L235.979 204.587C238.169 204.27 247.523 204.447 250.185 204.449L281.107 204.46C283.472 204.441 285.857 204.399 288.22 204.47C288.36 215.103 288.38 223.055 280.307 231.397C274.957 236.988 267.555 240.154 259.815 240.161C255.457 240.208 250.9 239.299 246.936 237.306C245.736 236.703 245.784 236.456 245.493 235.237C245.63 233.582 245.026 232.728 245.04 230.998C244.729 230.441 240.652 226.758 239.973 226.218C239.428 226.263 235.625 225.89 234.522 225.853C230.57 218.196 230.95 212.713 230.764 204.395Z" fill="black"/>
<path d="M281.107 204.46C283.472 204.441 285.857 204.399 288.22 204.47C288.36 215.103 288.38 223.056 280.307 231.397C274.957 236.988 267.555 240.154 259.815 240.161C255.457 240.208 250.9 239.299 246.935 237.306C245.736 236.703 245.784 236.456 245.493 235.237C245.63 233.582 245.025 232.728 245.039 230.998C260.422 240.941 280.287 231.786 281.942 213.202C282.205 210.254 281.672 207.347 281.107 204.46Z" fill="#EEEEEE"/>
<path d="M230.764 204.395C232.197 204.393 234.883 203.8 235.677 204.936C234.229 212.59 234.578 218.388 239.114 225.053C239.386 225.452 239.672 225.841 239.973 226.218C239.428 226.263 235.625 225.89 234.522 225.853C230.57 218.196 230.95 212.713 230.764 204.395Z" fill="#EEEEEE"/>
<path d="M101.115 233.065C115.05 232.308 122.121 246.878 113.774 257.978C116.346 260.59 119.493 265.168 121.995 268.193C119.754 270.035 118.027 271.45 115.606 273.04L114.029 271.088C111.907 268.245 109.835 265.445 107.585 262.7C102.181 262.933 98.4853 263.577 93.616 260.205C90.4515 257.97 88.3115 254.565 87.6723 250.745C86.9973 246.813 87.8885 242.774 90.155 239.491C92.976 235.481 96.4493 233.838 101.115 233.065Z" fill="#EEEEEE"/>
<path d="M98.3975 241.463C101.035 241.259 102.548 243.162 103.943 245.26C105.417 247.475 105.554 249.279 103.02 250.635C100.034 250.632 97.173 246.552 96.9222 243.723C96.846 242.864 97.8075 241.983 98.3975 241.463Z" fill="black"/>
<path d="M189.304 265.472C189.78 265.417 190.694 265.355 191.099 265.57C194.8 267.545 197.739 269.91 201.616 271.747C208.115 274.905 215.431 276.052 222.624 275.775C225.507 275.665 231.321 274 229.898 279.328C229.702 280.063 228.892 280.295 228.28 280.587C217.227 282.56 204.789 280.252 195.112 274.487C192.81 273.117 188.832 271.05 187.814 268.537C187.756 267.15 188.425 266.49 189.304 265.472Z" fill="#B2546E"/>
<path d="M231.65 197.253C250.058 197.208 269.825 196.85 288.118 197.29C288.203 198.617 288.595 199.899 287.425 200.684C283.193 201.151 232.817 201.111 231.651 200.639C231.199 200.456 231.164 200.172 230.975 199.759C230.968 198.686 231.238 198.22 231.65 197.253Z" fill="#B2546E"/>
<path d="M159.825 197.357C160.814 197.275 161.944 197.24 162.939 197.246C180.749 197.351 198.608 197.045 216.414 197.242L216.506 198.127C216.643 199.332 216.76 199.537 216.34 200.684C216.019 200.724 215.696 200.756 215.373 200.779C211.767 201.022 207.559 200.874 203.892 200.861L186.211 200.858L170.216 200.874C168.039 200.876 161.327 201.313 159.933 200.089C159.517 199.132 159.713 198.416 159.825 197.357Z" fill="#B2546E"/>
<path d="M281.862 243.147C284.492 242.613 287.205 243.536 288.965 245.562C290.722 247.588 291.255 250.405 290.357 252.932C289.46 255.46 287.27 257.31 284.627 257.772C280.615 258.475 276.785 255.825 276.03 251.822C275.272 247.822 277.872 243.956 281.862 243.147Z" fill="#B2546E"/>
<path d="M160.622 243.116C164.665 242.524 168.428 245.306 169.047 249.345C169.666 253.385 166.91 257.168 162.875 257.813C158.801 258.465 154.976 255.675 154.351 251.598C153.725 247.521 156.54 243.714 160.622 243.116Z" fill="#B2546E"/>
<path d="M234.523 225.853C235.625 225.89 239.428 226.263 239.973 226.218C240.653 226.758 244.729 230.441 245.04 230.998C245.026 232.728 245.631 233.582 245.494 235.237C245.873 244.112 236.7 245.752 229.74 244.551C229.226 243.842 229.351 244.231 229.372 243.34C230.578 241.944 238.033 243.582 240.761 241.156C243.492 238.726 243.94 233.687 241.688 230.877C238.293 226.641 230.554 228.315 225.771 227.734C225.016 227.642 225.213 227.689 224.775 227.099L224.929 226.751C226.8 225.724 232.064 226.228 234.523 225.853Z" fill="#B2546E"/>
<path d="M119.427 109.908C126.224 103.319 132.744 98.3345 141.138 93.7917C162.821 81.9652 188.344 79.3365 211.983 86.495C211.936 87.648 195.302 112.659 193.298 115.753L158.306 169.587C156.361 172.662 154.689 175.623 152.284 178.374C150.235 180.717 139.202 188.652 138.351 190.238C136.378 191.33 117.692 206.49 116.908 207.833C116.763 208.081 116.85 207.971 116.565 208.171C107.739 205.882 103.535 206.139 94.6504 207.346C93.9446 203.486 92.6809 198.861 91.8776 194.733C87.7754 171.032 91.8139 148.735 104.481 128.319C103.021 127.12 100.889 125.342 99.8054 123.818C95.9226 118.36 97.6139 111.222 102.88 107.439C105.45 105.571 108.666 104.824 111.796 105.367C114.409 105.823 117.929 107.819 119.427 109.908Z" fill="black"/>
<path d="M104.48 128.319C103.02 127.12 100.888 125.342 99.8047 123.818C95.9219 118.36 97.6132 111.222 102.879 107.439C105.449 105.571 108.665 104.824 111.795 105.367C114.408 105.823 117.928 107.819 119.427 109.909C113.156 116.192 109.375 121.117 104.48 128.319Z" fill="#FE83FD"/>
<path d="M91.877 194.733C92.6802 198.861 93.944 203.486 94.6497 207.346C93.5415 207.806 90.3875 208.982 89.2232 209.16C87.9152 209.482 85.5797 209.994 84.351 210.438C84.0227 211.423 83.992 211.62 83.1865 212.253C81.2535 210.413 80.5922 204.225 80.0825 201.292C79.6735 200.145 79.2867 199.221 79.7785 198.127C81.1437 196.711 84.4015 196.522 86.584 196.102C87.5167 195.985 90.761 195.025 91.877 194.733Z" fill="#3A2453"/>
<path d="M91.8772 194.733C92.6804 198.861 93.9442 203.486 94.6499 207.346C93.5417 207.806 90.3877 208.982 89.2234 209.16C88.1982 206.649 87.0482 198.508 86.3072 197.677C86.0639 196.874 86.1597 197.1 86.5842 196.102C87.5169 195.985 90.7612 195.025 91.8772 194.733Z" fill="#FE83FD"/>
<path d="M80.083 201.292C80.2405 200.365 79.9 200.226 80.4668 199.382C81.44 199.93 80.8825 200.15 81.8933 200.488C82.4623 202.499 83.713 209.278 84.3515 210.438C84.0233 211.423 83.9925 211.62 83.187 212.253C81.254 210.413 80.5928 204.225 80.083 201.292Z" fill="#FE83FD"/>
<path d="M80.0825 201.292C79.6735 200.145 79.2867 199.221 79.7785 198.127C81.1437 196.711 84.4015 196.522 86.584 196.102C86.1595 197.1 86.0637 196.874 86.307 197.677C84.6667 198.232 82.5902 197.963 81.721 199.362L81.8927 200.488C80.882 200.15 81.4395 199.93 80.4662 199.382C79.8995 200.226 80.24 200.365 80.0825 201.292Z" fill="#EE91E9"/>
</svg>
