<svg width="452" height="376" viewBox="0 0 452 376" fill="none" xmlns="http://www.w3.org/2000/svg">
<path d="M62.3572 71.1426H411.557V201.4C411.557 297.829 333.386 376 236.957 376V376C140.528 376 62.3572 297.829 62.3572 201.4V71.1426Z" fill="#FFB4AD"/>
<path d="M62.3572 219.414V93.3145H103.929V219.414H62.3572Z" fill="#220500"/>
<circle cx="55.4678" cy="218.067" r="55.4678" fill="#FFB4AD"/>
<circle cx="55.0346" cy="218.501" r="17.767" fill="black" fill-opacity="0.1"/>
<path d="M451.186 51.9643C451.186 45.1402 449.842 38.383 447.23 32.0784C444.619 25.7738 440.791 20.0453 435.966 15.22C431.14 10.3947 425.412 6.56699 419.107 3.95555C412.803 1.3441 406.046 -2.98289e-07 399.221 0C392.397 2.98289e-07 385.64 1.3441 379.336 3.95555C373.031 6.567 367.303 10.3947 362.477 15.22C357.652 20.0453 353.824 25.7738 351.213 32.0784C348.601 38.383 347.257 45.1402 347.257 51.9643L399.221 51.9643H451.186Z" fill="#220500"/>
<circle cx="322.872" cy="51.7433" r="40.1857" fill="#220500"/>
<circle cx="104.588" cy="111.604" r="24.9113" transform="rotate(150 104.588 111.604)" fill="#220500"/>
<circle cx="127.818" cy="90.5638" r="18.3043" transform="rotate(150 127.818 90.5638)" fill="#220500"/>
<path d="M62.2572 70C62.2572 58.9543 71.2115 50 82.2572 50H450.257C450.809 50 451.257 50.4477 451.257 51V72.5C451.257 84.3741 441.631 94 429.757 94H62.2572V70Z" fill="#220500"/>
<path d="M140.221 168.671H242.5V193.416C242.5 221.659 219.604 244.555 191.361 244.555V244.555C163.117 244.555 140.221 221.659 140.221 193.416V168.671Z" fill="white"/>
<path d="M153.814 168.143H228.643V184.771C228.643 205.434 211.892 222.185 191.229 222.185V222.185C170.565 222.185 153.814 205.434 153.814 184.771V168.143Z" fill="black"/>
<rect x="138.572" y="155.474" width="103.929" height="4.94898" rx="2.47449" fill="#F59A92"/>
<rect x="138.572" y="155.474" width="103.929" height="4.94898" rx="2.47449" fill="#220500"/>
<path d="M271.864 168.671H374.143V193.416C374.143 221.659 351.247 244.555 323.003 244.555V244.555C294.76 244.555 271.864 221.659 271.864 193.416V168.671Z" fill="white"/>
<path d="M286.843 168.143H360.286V185.464C360.286 205.745 343.845 222.185 323.564 222.185V222.185C303.284 222.185 286.843 205.745 286.843 185.464V168.143Z" fill="black"/>
<rect x="270.214" y="155.474" width="103.929" height="4.94898" rx="2.47449" fill="#F59A92"/>
<rect x="270.214" y="155.474" width="103.929" height="4.94898" rx="2.47449" fill="#220500"/>
<path d="M245.271 234.657H270.534C278.776 234.657 285.457 241.339 285.457 249.58V249.58C285.457 252.053 283.453 254.057 280.98 254.057H245.271V234.657Z" fill="#D9D9D9"/>
<path d="M245.271 234.657H270.534C278.776 234.657 285.457 241.339 285.457 249.58V249.58C285.457 252.053 283.453 254.057 280.98 254.057H245.271V234.657Z" fill="#F59A92"/>
<path d="M245.271 234.657H270.534C278.776 234.657 285.457 241.339 285.457 249.58V249.58C285.457 252.053 283.453 254.057 280.98 254.057H245.271V234.657Z" fill="#A24F66"/>
</svg>
